<svg id="Layer_1" data-name="Layer 1" xmlns="http://www.w3.org/2000/svg" viewBox="0 0 166.62 196.58"><title>usacricket-logo</title><path d="M83.31,196.58c-31.28,0-54.23-11.7-68.22-34.76C5.08,145.3,0,123.22,0,96.17V14.75L83.31,0l83.31,14.75V96.17c0,27-5.08,49.14-15.09,65.65C137.55,184.89,114.59,196.58,83.31,196.58Z" style="fill:#fff"/><path d="M83.31,3.83,3.77,17.91V96.17c0,26.35,4.89,47.78,14.54,63.7,13.26,21.86,35.12,32.95,65,32.95s51.74-11.09,65-32.95c9.65-15.92,14.54-37.35,14.54-63.7V17.91Z" style="fill:#002d73"/><path d="M8.88,72.13V96.75c0,25.4,4.64,45.94,13.8,61C34.95,178,55.35,188.28,83.31,188.28S131.67,178,143.94,157.8c9.16-15.11,13.8-35.65,13.8-61V72.13Z" style="fill:#fff"/><polygon points="37.37 29.05 39.47 35.49 46.23 35.49 40.76 39.47 42.85 45.91 37.37 41.93 31.9 45.91 33.99 39.47 28.52 35.49 35.28 35.49 37.37 29.05" style="fill:#fff"/><path d="M48.34,48.09c0,6.55-3.68,11.07-11,11.07S26.15,54.64,26.15,48.09V20.18H12.84l2.93,2.52V48.44C15.77,60,22.62,68,37.32,68s21.4-8,21.4-19.66V20.18H48.34Z" style="fill:#fff"/><path d="M85.21,38.43C79.3,37.16,75,36.18,75,33c0-2.82,2.61-4.79,7.52-4.79a23,23,0,0,1,14.67,5.15L103.26,26c-5.07-4.3-11.82-6.55-20-6.55-12.05,0-19.43,6.34-19.43,14.17C63.87,44.14,74.62,46.26,83,48c5.91,1.27,10.37,2.47,10.37,6,0,2.68-2.92,5.29-8.91,5.29A23.44,23.44,0,0,1,68.17,53l-6,7.61C67,65,74.08,68,83.91,68c13.82,0,20.5-6.48,20.5-15.08C104.41,42.52,93.66,40.19,85.21,38.43Z" style="fill:#fff"/><path d="M136.92,22.95,140,20.18H123l-18.59,47h11.24l3-8.1h21.47l3,8.1h11.17Zm-15.5,27.47,8-21.57,7.93,21.57Z" style="fill:#fff"/><path d="M12.84,88.13c0-7.21,5.5-12.13,12.38-12.13a11,11,0,0,1,9.59,5l-3.08,1.58a7.71,7.71,0,0,0-6.51-3.41c-4.89,0-8.65,3.73-8.65,9s3.76,9,8.65,9a7.71,7.71,0,0,0,6.51-3.41l3.08,1.58a11,11,0,0,1-9.59,5C18.34,100.26,12.84,95.34,12.84,88.13Z" style="fill:#002d73"/><path d="M46.57,90.8H42v9H38.43V76.39H48.6c4.6,0,7.75,2.88,7.75,7.21a6.61,6.61,0,0,1-6,6.86l6.19,9.39h-4.2Zm1.56-11.32H42v8.23h6.08c2.61,0,4.49-1.65,4.49-4.11S50.74,79.48,48.13,79.48Z" style="fill:#002d73"/><path d="M60.8,76.39h3.62V99.84H60.8Z" style="fill:#002d73"/><path d="M68.8,88.13C68.8,80.92,74.3,76,81.18,76a11,11,0,0,1,9.59,5l-3.08,1.58a7.71,7.71,0,0,0-6.51-3.41c-4.89,0-8.65,3.73-8.65,9s3.76,9,8.65,9a7.71,7.71,0,0,0,6.51-3.41l3.08,1.58a11,11,0,0,1-9.59,5C74.3,100.26,68.8,95.34,68.8,88.13Z" style="fill:#002d73"/><path d="M100.29,89.64,98,92.14v7.7H94.39V76.39H98V88l10.1-11.64h4.49l-10,11.11,10.75,12.34H108.9Z" style="fill:#002d73"/><path d="M116.5,76.39h16.21v3.09H120.12v6.86h12.34v3.09H120.12v7.31h12.59v3.09H116.5Z" style="fill:#002d73"/><path d="M143.14,79.48h-7.49V76.39h18.57v3.09h-7.46V99.84h-3.62Z" style="fill:#002d73"/><path d="M46.05,150.53,29.2,161.34c-1.23-1.59-2.82-4-3.6-5.31-1.12-1.85-2.18-3.79-3.16-5.81H43l1.46-.94-5.17-8.06,4-2.55H17.91A107.61,107.61,0,0,1,15,127.12H61.22l18-11.55h-66q-.59-5.49-.82-11.39h88.1l-57.67,37,3.9,6.07A2.37,2.37,0,0,1,46.05,150.53Zm37.26,34.35c16.86,0,30.81-3.88,41.73-11.55H41.58C52.5,181,66.45,184.88,83.31,184.88ZM142,115.57h11.36q.59-5.49.82-11.39h0L58.51,165.57c5.52-16,34.38-38.91,34.38-38.91L32.42,165.23a54.16,54.16,0,0,0,5.8,5.54l14-9h.2l5.12,8,12.44-8h67.08A61.66,61.66,0,0,0,141,156c1.12-1.85,2.16-3.79,3.14-5.81H88l18-11.55h42.71a107.61,107.61,0,0,0,2.91-11.55H124Z" style="fill:#c6093b"/><path d="M138.75,179.89h4v.75H141.2v4.23h-.87v-4.23h-1.58Z" style="fill:#002d73"/><path d="M143.35,179.89h1.23l1.38,3.9h0l1.34-3.9h1.21v5h-.83V181h0l-1.38,3.85h-.72L144.2,181h0v3.85h-.83Z" style="fill:#002d73"/></svg>